<?xml version="1.0" encoding="utf-8" standalone="no"?>
<!DOCTYPE svg PUBLIC "-//W3C//DTD SVG 1.1//EN"
  "http://www.w3.org/Graphics/SVG/1.1/DTD/svg11.dtd">
<svg height="288pt" version="1.1" viewBox="0 0 432 288" width="432pt" xmlns="http://www.w3.org/2000/svg" xmlns:xlink="http://www.w3.org/1999/xlink">
 <metadata>
  <rdf:RDF xmlns:cc="http://creativecommons.org/ns#" xmlns:dc="http://purl.org/dc/elements/1.1/" xmlns:rdf="http://www.w3.org/1999/02/22-rdf-syntax-ns#">
   <cc:Work>
    <dc:type rdf:resource="http://purl.org/dc/dcmitype/StillImage"/>
    <dc:date>2021-10-07T01:01:47.477219</dc:date>
    <dc:format>image/svg+xml</dc:format>
    <dc:creator>
     <cc:Agent>
      <dc:title>Matplotlib v3.4.3, https://matplotlib.org/</dc:title>
     </cc:Agent>
    </dc:creator>
   </cc:Work>
  </rdf:RDF>
 </metadata>
 <defs>
  <style type="text/css">*{stroke-linecap:butt;stroke-linejoin:round;}</style>
 </defs>
 <g id="figure_1">
  <g id="patch_1">
   <path d="M 0 288 
L 432 288 
L 432 0 
L 0 0 
z
" style="fill:none;"/>
  </g>
  <g id="axes_1">
   <g id="patch_2">
    <path clip-path="url(#pc7ae86efc2)" d="M 61.77154 43.513945 
L 286.672643 43.513945 
L 286.672643 61.708363 
L 334.047949 61.708363 
L 334.047949 87.028927 
L 363.131123 87.028927 
L 363.131123 163.90034 
L 381.02846 163.90034 
L 381.02846 196.04381 
L 380.238872 196.04381 
L 380.238872 198.166492 
L 381.02846 198.166492 
L 381.02846 243.046055 
L 273.118042 243.046055 
L 252.983537 243.046055 
L 252.983537 224.851637 
L 243.508476 224.851637 
L 243.508476 217.57387 
L 227.716707 217.57387 
L 227.716707 210.296103 
L 215.083293 210.296103 
L 215.083293 224.851637 
L 189.816463 224.851637 
L 189.816463 243.046055 
L 170.866341 243.046055 
L 61.77154 243.046055 
L 61.77154 43.513945 
M 273.512836 225.154878 
L 273.512836 225.609738 
L 282.066711 225.609738 
L 282.066711 215.602809 
L 288.120222 215.602809 
L 288.120222 204.079678 
L 288.07981 204.079678 
L 288.07981 195.74057 
L 314.571434 195.74057 
L 314.571434 205.141019 
L 322.467319 205.141019 
L 322.467319 198.166492 
L 374.448557 198.166492 
L 374.448557 196.04381 
L 372.079792 196.04381 
L 372.079792 187.553082 
L 281.803515 187.553082 
L 281.803515 195.285709 
L 281.803515 204.079678 
L 280.487534 204.079678 
L 280.487534 225.154878 
L 273.512836 225.154878 
M 281.935113 69.89585 
L 281.935113 110.984909 
L 279.434749 110.984909 
L 279.434749 176.636432 
L 324.44129 176.636432 
L 324.44129 110.984909 
L 320.624946 110.984909 
L 320.624946 69.89585 
L 281.935113 69.89585 
M 170.866341 112.04625 
L 170.866341 173.907269 
L 221.4 173.907269 
L 271.933659 173.907269 
L 271.933659 112.04625 
L 170.866341 112.04625 
M 176.656656 65.195626 
L 176.656656 102.494181 
L 271.933659 102.494181 
L 271.933659 65.195626 
L 229.55908 65.195626 
L 229.55908 85.209485 
L 180.078206 85.209485 
L 180.078206 65.195626 
L 176.656656 65.195626 
M 121.648662 102.494181 
L 121.648662 131.302009 
L 129.018154 131.302009 
L 129.018154 224.851637 
L 167.181595 224.851637 
L 167.181595 102.494181 
L 121.648662 102.494181 
" style="fill:#1f77b4;opacity:0.3;stroke:#000000;stroke-linejoin:miter;"/>
   </g>
  </g>
 </g>
 <defs>
  <clipPath id="pc7ae86efc2">
   <rect height="217.44" width="334.8" x="54" y="34.56"/>
  </clipPath>
 </defs>
</svg>
